<svg width="28" height="37" viewBox="0 0 28 37" fill="none" xmlns="http://www.w3.org/2000/svg">
<path d="M7.18058 36.9C9.0361 36.9 10.8156 36.2507 12.1277 35.0949C13.4397 33.9391 14.1768 32.3715 14.1768 30.737V24.454H7.18058C5.32506 24.454 3.54553 25.1033 2.23348 26.2591C0.921429 27.4149 0.184326 28.9824 0.184326 30.617C0.184326 32.2515 0.921429 33.8191 2.23348 34.9748C3.54553 36.1306 5.32506 36.7799 7.18058 36.7799V36.9Z" fill="#0ACF83"/>
<path d="M0.00146484 18.4511C0.0250211 17.6417 0.229406 16.8443 0.602942 16.1045C0.976478 15.3646 1.51184 14.6969 2.17844 14.1395C2.84504 13.582 3.62981 13.1457 4.48791 12.8555C5.346 12.5653 6.2606 12.4269 7.17944 12.4482H13.994V24.454H7.17944C6.2606 24.4753 5.346 24.3369 4.48791 24.0467C3.62981 23.7565 2.84504 23.3202 2.17844 22.7627C1.51184 22.2052 0.976478 21.5375 0.602942 20.7977C0.229406 20.0579 0.0250211 19.2605 0.00146484 18.4511Z" fill="#A259FF"/>
<path d="M0.002424 6.12504C0.00815145 5.30544 0.199409 4.49507 0.565007 3.74136C0.930605 2.98766 1.4632 2.30577 2.13161 1.7356C2.80002 1.16543 3.59083 0.718439 4.45774 0.42078C5.32466 0.123121 6.25027 -0.019222 7.18039 0.00208245H13.9949V12.4481H7.18039C6.23096 12.4701 5.28638 12.3216 4.4042 12.0117C3.52203 11.7017 2.72074 11.2367 2.04916 10.6451C1.37757 10.0535 0.849757 9.34769 0.497878 8.57058C0.146 7.79348 -0.0225742 6.9614 0.002424 6.12504Z" fill="#F24E1E"/>
<path d="M13.9949 0.00195313H20.8094C22.683 0.00195312 24.4799 0.657588 25.8047 1.82463C27.1295 2.99167 27.8738 4.57452 27.8738 6.22496C27.8738 7.87541 27.1295 9.45825 25.8047 10.6253C24.4799 11.7923 22.683 12.448 20.8094 12.448H13.9949V0.00195313Z" fill="#FF7262"/>
<path d="M27.9878 18.4511C28.0232 19.6694 27.6478 20.8697 26.909 21.9001C26.1702 22.9305 25.1011 23.7449 23.837 24.2401C22.5729 24.7354 21.1704 24.8894 19.807 24.6827C18.4435 24.4759 17.1802 23.9177 16.1768 23.0786C15.1735 22.2395 14.475 21.1571 14.1699 19.9684C13.8647 18.7797 13.9665 17.5379 14.4624 16.4002C14.9582 15.2624 15.8259 14.2797 16.9557 13.5762C18.0855 12.8728 19.4267 12.4802 20.8098 12.4482C21.7286 12.4269 22.6432 12.5653 23.5013 12.8555C24.3594 13.1457 25.1442 13.582 25.8108 14.1395C26.4774 14.6969 27.0128 15.3646 27.3863 16.1045C27.7598 16.8443 27.9642 17.6417 27.9878 18.4511Z" fill="#1ABCFE"/>
</svg>
