<svg width="32" height="40" viewBox="0 0 32 40" fill="none" xmlns="http://www.w3.org/2000/svg">
<path d="M21.0131 14.4478L16.5772 18.1733L12.4609 10.6797L14.5909 6.37023C15.13 5.50632 16.0096 5.50467 16.5487 6.37023L21.0131 14.4478Z" fill="#FFA000"/>
<path d="M16.5773 18.173L0.000732422 32.0915L12.4611 10.6793L16.5773 18.173Z" fill="#F57F17"/>
<path d="M25.8647 8.75326C26.6571 8.06577 27.4765 8.30026 27.6852 9.27436L32 31.9052L17.6968 39.6424C17.1962 39.8919 15.8707 40.0001 15.8707 40.0001C15.8707 40.0001 14.6608 39.8695 14.1997 39.6385L0 32.0909L25.8647 8.75326Z" fill="#FFCA28"/>
<path d="M12.4611 10.6794L0.000732422 32.0916L5.55077 0.797054C5.75514 -0.177821 6.36997 -0.271705 6.9185 0.58879L12.4611 10.6794Z" fill="#FFA000"/>
</svg>
