<svg width="37" height="37" viewBox="0 0 37 37" fill="none" xmlns="http://www.w3.org/2000/svg">
<path d="M36.159 0.840942H0.84082V36.1591H36.159V0.840942Z" fill="url(#paint0_radial_175_64)"/>
<path d="M37 37H0V0H37V37ZM1.68182 35.3182H35.3182V1.68182H1.68182V35.3182Z" fill="#F47521"/>
<path d="M19.341 20.1818H12.6138V23.5454H19.341V20.1818Z" fill="#F47521"/>
<path d="M29.432 15.9772H26.0684V28.5908H29.432V15.9772Z" fill="#F47521"/>
<path d="M27.7502 15.1365C28.679 15.1365 29.432 14.3835 29.432 13.4546C29.432 12.5258 28.679 11.7728 27.7502 11.7728C26.8213 11.7728 26.0684 12.5258 26.0684 13.4546C26.0684 14.3835 26.8213 15.1365 27.7502 15.1365Z" fill="#F47521"/>
<path d="M14.2113 8.40906L7.75293 28.5909H11.2852L15.9773 13.9275L20.6693 28.5909H24.2016L17.7432 8.40906H14.2113Z" fill="#F47521"/>
<path d="M30.4222 30.4222H0V0H30.4222V30.4222Z" fill="url(#paint1_linear_175_64)"/>
<defs>
<radialGradient id="paint0_radial_175_64" cx="0" cy="0" r="1" gradientUnits="userSpaceOnUse" gradientTransform="translate(13.1742 8.68943) scale(29.5803)">
<stop stop-color="#3C1605" stop-opacity="0.98"/>
<stop offset="1" stop-color="#1A1107"/>
</radialGradient>
<linearGradient id="paint1_linear_175_64" x1="-3.10939" y1="6.66812" x2="33.5316" y2="23.7541" gradientUnits="userSpaceOnUse">
<stop stop-color="white" stop-opacity="0.2"/>
<stop offset="1" stop-color="white" stop-opacity="0"/>
</linearGradient>
</defs>
</svg>
