<svg width="37" height="37" viewBox="0 0 37 37" fill="none" xmlns="http://www.w3.org/2000/svg">
<path d="M18.5 0C28.675 0 37 8.325 37 18.5C37 28.675 28.675 37 18.5 37C8.325 37 0 28.675 0 18.5C0 8.325 8.325 0 18.5 0Z" fill="url(#paint0_linear_180_3)"/>
<path d="M23.9344 6.9375H12.95C9.59687 6.9375 6.9375 9.7125 6.9375 13.1812V23.8188C6.9375 27.1719 9.59688 29.9469 13.0656 30.0625H24.05C27.4031 30.0625 30.1781 27.2875 30.1781 23.8188V13.1812C30.0625 9.7125 27.4031 6.9375 23.9344 6.9375ZM27.9813 23.7031C27.9813 26.0156 26.1312 27.9813 23.7031 27.9813H13.1812C10.8687 27.9813 8.90313 26.0156 9.01875 23.7031V13.2969C9.01875 10.9844 10.8687 9.01875 13.1812 9.01875H23.7031C26.0156 9.01875 27.9813 10.9844 27.9813 13.2969V23.7031Z" fill="white"/>
<path d="M18.5 12.6032C15.2625 12.4876 12.4875 15.147 12.4875 18.3845C12.3719 21.622 15.0313 24.397 18.2688 24.397C21.5063 24.397 24.2813 21.8532 24.2813 18.6157V18.5001C24.3969 15.2626 21.7375 12.6032 18.5 12.6032ZM18.5 22.3157C16.4188 22.3157 14.6844 20.697 14.5688 18.6157C14.5688 16.5345 16.1875 14.8001 18.2688 14.6845C20.35 14.5689 22.0844 16.3032 22.2 18.3845V18.5001C22.3156 20.5814 20.5813 22.3157 18.5 22.3157Z" fill="white"/>
<path d="M24.6281 10.8687C25.3218 10.8687 25.8999 11.4468 25.8999 12.2562C25.8999 13.0655 25.3218 13.6437 24.6281 13.6437C23.9343 13.6437 23.3562 13.0655 23.3562 12.2562C23.3562 11.4468 23.9343 10.8687 24.6281 10.8687Z" fill="white"/>
<defs>
<linearGradient id="paint0_linear_180_3" x1="9.24686" y1="34.5252" x2="27.75" y2="2.47692" gradientUnits="userSpaceOnUse">
<stop stop-color="#FEC053"/>
<stop offset="0.327" stop-color="#F2203E"/>
<stop offset="0.648" stop-color="#B729A8"/>
<stop offset="1" stop-color="#5342D6"/>
</linearGradient>
</defs>
</svg>
