<svg width="39" height="39" viewBox="0 0 39 39" fill="none" xmlns="http://www.w3.org/2000/svg">
<path d="M19.5 39C30.2696 39 39 30.2696 39 19.5C39 8.73045 30.2696 0 19.5 0C8.73045 0 0 8.73045 0 19.5C0 30.2696 8.73045 39 19.5 39Z" fill="#F0DB4F"/>
<path d="M13.416 11.9338H16.809V21.4888C16.809 25.7788 14.742 27.2998 11.466 27.2998C10.647 27.2998 9.63297 27.1828 8.96997 26.9488L9.35997 24.1798C9.82797 24.3358 10.452 24.4528 11.115 24.4528C12.558 24.4528 13.455 23.7898 13.455 21.4888L13.416 11.9338Z" fill="#323330"/>
<path d="M19.8119 23.556C20.7089 24.024 22.1519 24.492 23.5949 24.492C25.1549 24.492 25.9739 23.829 25.9739 22.815C25.9739 21.879 25.2719 21.333 23.4389 20.709C20.9429 19.812 19.2659 18.408 19.2659 16.185C19.2659 13.65 21.4499 11.7 24.9989 11.7C26.7149 11.7 27.9629 12.051 28.8599 12.48L28.0799 15.21C27.4949 14.937 26.4029 14.508 24.9599 14.508C23.4779 14.508 22.7759 15.21 22.7759 15.951C22.7759 16.926 23.5949 17.355 25.5839 18.096C28.2359 19.071 29.4839 20.475 29.4839 22.62C29.4839 25.155 27.5729 27.3 23.3999 27.3C21.6839 27.3 19.9679 26.832 19.1099 26.364L19.8119 23.556Z" fill="#323330"/>
</svg>
