<svg width="38" height="37" viewBox="0 0 38 37" fill="none" xmlns="http://www.w3.org/2000/svg">
<path fill-rule="evenodd" clip-rule="evenodd" d="M32.7577 0H5.24232C2.6366 0 0.5 2.13683 0.5 4.74224V32.2577C0.5 34.8631 2.6366 37 5.24232 37H32.7576C35.3636 37 37.5 34.8631 37.5 32.2578V4.74224C37.5 2.13683 35.3636 0 32.7577 0ZM13.2188 17.8688V26.7865C13.2188 28.17 12.0971 29.2917 10.7135 29.2917V29.2917C9.32995 29.2917 8.20833 28.17 8.20833 26.7865V18.7211V17.3823C8.20833 15.9987 9.32995 14.8771 10.7135 14.8771V14.8771C12.0971 14.8771 13.2188 15.9987 13.2188 17.3823V17.8688ZM10.7035 12.7286C9.30962 12.7286 8.17858 11.5984 8.17858 10.2037C8.17858 8.8087 9.30962 7.67989 10.7035 7.67989C12.0993 7.67989 13.2293 8.80877 13.2293 10.2037C13.2293 11.5984 12.0994 12.7286 10.7035 12.7286ZM29.8059 21.4292C29.798 21.4292 29.7917 21.4355 29.7917 21.4434V27.1333C29.7917 28.3253 28.8253 29.2917 27.6333 29.2917V29.2917C26.4413 29.2917 25.475 28.3253 25.475 27.1333V22.29C25.475 20.6134 25.2935 18.4571 22.9957 18.4571C20.663 18.4571 20.3104 20.2823 20.3104 22.1691V27.2104C20.3104 28.3599 19.3786 29.2917 18.2292 29.2917V29.2917C17.0797 29.2917 16.1479 28.3599 16.1479 27.2104V17.6613V16.8813C16.1479 15.7744 17.0452 14.8771 18.1521 14.8771H19.1927C19.7249 14.8771 20.1563 15.3085 20.1563 15.8406V16.7773C20.1563 16.7921 20.1683 16.8042 20.1831 16.8042V16.8042C20.1929 16.8042 20.2018 16.7989 20.2066 16.7904C20.8093 15.7178 22.2708 14.8755 24.4425 14.8755C28.1172 14.8755 29.3659 16.6132 29.7076 19.3319C29.7882 19.966 29.8196 20.6499 29.82 21.4149C29.82 21.4228 29.8137 21.4292 29.8059 21.4292V21.4292Z" fill="#1877F2"/>
</svg>
