<svg width="52" height="37" viewBox="0 0 52 37" fill="none" xmlns="http://www.w3.org/2000/svg">
<path d="M42.7347 35.6753L42.7846 35.5819C42.8301 35.5042 42.8685 35.423 42.8994 35.3389L42.9037 35.3286C43.0593 34.926 43.0997 34.4908 43.0208 34.0682L43.0229 34.0828C42.9389 33.6249 42.7661 33.1862 42.5137 32.7892L42.5245 32.8058L31.0029 13.386L29.2434 10.4377L27.4947 13.386L15.9796 32.8058C15.7576 33.1962 15.608 33.6205 15.5375 34.0599L15.5354 34.0828C15.4418 34.5819 15.5021 35.0963 15.7087 35.5632L15.7022 35.5466C15.7331 35.6195 15.7693 35.6903 15.8106 35.7584L15.8062 35.7501C16.1529 36.321 16.8897 37 18.5149 37H39.9632C40.3034 37 41.9676 36.9336 42.7369 35.6774L42.7347 35.6753ZM29.2412 16.3323L39.7704 34.0807H18.7164L29.2412 16.3323ZM51.4501 32.8058L36.2469 7.14254C36.0909 6.87262 35.2133 5.50847 33.6856 5.50847C32.9987 5.50847 32.0127 5.78878 31.211 7.13838L29.2456 10.4397L30.9943 13.3881L33.7029 8.79529L48.7436 34.0848H43.0229C43.0967 34.509 43.0533 34.9442 42.8972 35.3473L42.9037 35.3306C42.8708 35.4212 42.8295 35.5088 42.7802 35.5923L42.7846 35.584L42.7369 35.6774C41.9676 36.9336 40.3034 37 39.9784 37H48.9257C49.255 37 50.9127 36.9336 51.682 35.6774C52.0222 35.1064 52.2671 34.1471 51.4501 32.8079V32.8058ZM15.8214 35.748C15.7855 35.686 15.7529 35.6222 15.7239 35.557L15.7196 35.5445C15.5068 35.08 15.4434 34.5653 15.5375 34.0662L15.5354 34.0828L3.24668 34.0807L21.5118 3.28474L27.5077 13.384L29.2456 10.4356L24.0189 1.6133C23.8737 1.35999 22.9896 0 21.4684 0C20.7815 0 19.7956 0.284456 18.9938 1.63406L0.492508 32.8038C0.336489 33.0737 -0.428439 34.4897 0.329988 35.7459C0.676698 36.3169 1.41346 36.9958 3.03866 36.9958H18.5344C16.92 36.9958 16.1724 36.3273 15.8257 35.7459L15.8214 35.748Z" fill="#05571C"/>
</svg>
