<svg width="37" height="37" viewBox="0 0 37 37" fill="none" xmlns="http://www.w3.org/2000/svg">
<path d="M36.159 0.840942H0.84082V36.1591H36.159V0.840942Z" fill="url(#paint0_radial_175_74)"/>
<path d="M37 37H0V0H37V37ZM1.68182 35.3182H35.3182V1.68182H1.68182V35.3182Z" fill="#00B5EF"/>
<path d="M11.7728 28.5909H8.40918V8.40906L13.1549 8.40906C16.6663 8.40906 19.8081 10.9693 20.149 14.4642C20.5403 18.4741 17.3858 21.8636 13.4546 21.8636H11.7728V28.5909ZM11.7728 18.5H13.4546C15.3097 18.5 16.8183 16.9914 16.8183 15.1363C16.8183 13.2812 15.3097 11.7727 13.4546 11.7727H11.7728V18.5Z" fill="#00B5EF"/>
<path d="M23.9442 28.5527C21.9359 28.3784 20.4528 27.6638 20.2705 27.5726L21.775 24.5638C21.7799 24.5666 23.1549 25.2273 24.8176 25.2273C25.5074 25.2273 26.0683 24.6664 26.0683 23.9766C26.0683 23.4379 25.725 22.9608 25.2134 22.7908L24.4021 22.5206C22.686 21.9491 21.3135 20.5102 21.0675 18.7182C20.6788 15.8868 22.8796 13.4546 25.6371 13.4546C28.0771 13.4546 29.9758 14.3687 30.1841 14.4729L28.6871 17.485C28.6744 17.4787 27.2995 16.8182 25.6371 16.8182C24.9473 16.8182 24.3864 17.3791 24.3864 18.0689C24.3864 18.6076 24.7297 19.0847 25.2413 19.2547L26.2768 19.5996C28.3108 20.2776 29.6254 22.2682 29.4085 24.4447C29.1459 27.0793 26.582 28.7816 23.9442 28.5527Z" fill="#00B5EF"/>
<path d="M37 37H0V0H37V37Z" fill="url(#paint1_linear_175_74)"/>
<defs>
<radialGradient id="paint0_radial_175_74" cx="0" cy="0" r="1" gradientUnits="userSpaceOnUse" gradientTransform="translate(13.1742 8.68943) scale(29.5803)">
<stop stop-color="#193458" stop-opacity="0.98"/>
<stop offset="0.933387" stop-color="#210021"/>
</radialGradient>
<linearGradient id="paint1_linear_175_74" x1="-3.7817" y1="8.10987" x2="40.7817" y2="28.8901" gradientUnits="userSpaceOnUse">
<stop stop-color="white" stop-opacity="0.2"/>
<stop offset="1" stop-color="white" stop-opacity="0"/>
</linearGradient>
</defs>
</svg>
