<svg width="37" height="37" viewBox="0 0 37 37" fill="none" xmlns="http://www.w3.org/2000/svg">
<path d="M18.5006 0C8.28339 0 0 8.28172 0 18.5006C0 26.0768 4.55459 32.5833 11.0742 35.4433C11.0222 34.1504 11.065 32.5995 11.3957 31.1967C11.752 29.6921 13.776 21.1131 13.776 21.1131C13.776 21.1131 13.1838 19.9323 13.1838 18.1883C13.1838 15.4486 14.7752 13.4004 16.7542 13.4004C18.4358 13.4004 19.2489 14.6621 19.2489 16.176C19.2489 17.8668 18.1686 20.3972 17.6158 22.7403C17.152 24.7017 18.6012 26.3023 20.5327 26.3023C24.0383 26.3023 26.3988 21.8024 26.3988 16.4674C26.3988 12.4139 23.6682 9.3804 18.7018 9.3804C13.0901 9.3804 9.59495 13.5635 9.59495 18.2381C9.59495 19.8502 10.0703 20.9871 10.814 21.8672C11.1575 22.2719 11.2049 22.4327 11.0788 22.8976C10.9932 23.2399 10.7897 24.0576 10.7041 24.3814C10.5804 24.8521 10.2022 25.0186 9.77769 24.844C7.19274 23.7916 5.9899 20.9605 5.9899 17.7778C5.9899 12.5238 10.4207 6.22083 19.213 6.22083C26.2751 6.22083 30.9268 11.3326 30.9268 16.819C30.9268 24.0761 26.8892 29.4978 20.9421 29.4978C18.9435 29.4978 17.0641 28.4176 16.4234 27.194C16.4234 27.194 15.3478 31.4569 15.1222 32.278C14.729 33.7017 13.961 35.1299 13.2601 36.2413C14.921 36.7328 16.679 37 18.5006 37C28.7178 37 37 28.7194 37 18.5006C37 8.28172 28.7178 0 18.5006 0Z" fill="#CA2028"/>
</svg>
