<svg width="65" height="35" viewBox="0 0 65 35" fill="none" xmlns="http://www.w3.org/2000/svg">
<path d="M53.625 10.2518C51.1877 9.49988 49.0363 8.14799 47.4175 6.35109C45.6334 4.34904 43.3617 2.73901 40.7761 1.64417C38.1906 0.549323 35.3597 -0.00132396 32.5 0.034348C28.6532 -0.20966 24.8449 0.853036 21.8335 3.01081C18.8221 5.16858 16.8286 8.2631 16.25 11.6781C17.3897 9.9701 19.105 8.62997 21.149 7.85057C23.1931 7.07117 25.4605 6.89269 27.625 7.34081C30.0582 8.11456 32.2061 9.47433 33.8325 11.2706C35.6264 13.2566 37.9024 14.85 40.4874 15.9295C43.0724 17.009 45.8983 17.5461 48.75 17.5C52.5968 17.744 56.4051 16.6813 59.4165 14.5235C62.4279 12.3658 64.4214 9.27125 65 5.85623C63.881 7.58467 62.1712 8.94504 60.1229 9.73652C58.0747 10.528 55.7966 10.7086 53.625 10.2518ZM11.375 24.7482C13.8123 25.5001 15.9637 26.852 17.5825 28.6489C19.3666 30.651 21.6383 32.261 24.2239 33.3558C26.8094 34.4507 29.6403 35.0013 32.5 34.9657C36.3468 35.2097 40.1551 34.147 43.1665 31.9892C46.1779 29.8314 48.1714 26.7369 48.75 23.3219C47.6103 25.0299 45.895 26.37 43.851 27.1494C41.8069 27.9288 39.5395 28.1073 37.375 27.6592C34.9418 26.8854 32.7939 25.5257 31.1675 23.7294C29.3688 21.7483 27.0918 20.1584 24.508 19.0794C21.9241 18.0004 19.1006 17.4604 16.25 17.5C12.4032 17.256 8.5949 18.3187 5.58352 20.4765C2.57214 22.6342 0.578637 25.7288 0 29.1438C1.119 27.4153 2.82883 26.055 4.87706 25.2635C6.92529 24.472 9.20338 24.2914 11.375 24.7482Z" fill="#1294B1"/>
</svg>
