<svg width="37" height="37" viewBox="0 0 37 37" fill="none" xmlns="http://www.w3.org/2000/svg">
<path d="M18.5 37C28.7173 37 37 28.7173 37 18.5C37 8.28273 28.7173 0 18.5 0C8.28273 0 0 8.28273 0 18.5C0 28.7173 8.28273 37 18.5 37Z" fill="#1CB7EB"/>
<path d="M28.3667 11.8709C27.6729 12.2563 26.825 12.4875 26.0542 12.5646C26.9021 12.025 27.5188 11.1771 27.8271 10.175C27.0563 10.6375 26.2083 11.0229 25.2063 11.2542C24.4354 10.4063 23.4333 9.8667 22.2771 9.8667C20.0417 9.8667 18.1917 11.7938 18.1917 14.2604C18.1917 14.5688 18.1917 14.9542 18.2688 15.2625C14.8771 15.1084 11.8708 13.3354 9.86668 10.7146C9.48127 11.3313 9.3271 12.1021 9.3271 12.95C9.3271 14.4917 10.0208 15.8021 11.1 16.5729C10.4063 16.5729 9.7896 16.3417 9.25002 16.0334V16.1104C9.25002 18.1917 10.6375 19.9646 12.4875 20.4271C12.1792 20.5042 11.7938 20.5813 11.4083 20.5813C11.1771 20.5813 10.8688 20.5813 10.6375 20.5042C11.1771 22.2771 12.6417 23.5105 14.4146 23.5105C13.0271 24.6667 11.2542 25.3605 9.40418 25.3605C9.09585 25.3605 8.78752 25.3605 8.4021 25.2834C10.175 26.5167 12.3333 27.2875 14.6458 27.2875C22.1229 27.2875 26.2083 20.6584 26.2083 14.8771C26.2083 14.7229 26.2083 14.4917 26.2083 14.3375C27.1333 13.5667 27.8271 12.7959 28.3667 11.8709Z" fill="white"/>
</svg>
