<svg width="37" height="37" viewBox="0 0 37 37" fill="none" xmlns="http://www.w3.org/2000/svg">
<path fill-rule="evenodd" clip-rule="evenodd" d="M0 0H37V37H0V0ZM24.6667 14.8C21.9421 14.8 19.7333 17.0087 19.7333 19.7333C19.7333 22.4579 21.9421 24.6667 24.6667 24.6667H27.1333C28.4957 24.6667 29.6 25.771 29.6 27.1333C29.6 28.4957 28.4957 29.6 27.1333 29.6H24.6667C23.3044 29.6 22.2 28.4957 22.2 27.1333H19.7333C19.7333 29.858 21.9421 32.0667 24.6667 32.0667H27.1333C29.858 32.0667 32.0667 29.858 32.0667 27.1333C32.0667 24.4087 29.858 22.2 27.1333 22.2H24.6667C23.3044 22.2 22.2 21.0956 22.2 19.7333C22.2 18.371 23.3044 17.2667 24.6667 17.2667H27.5445C28.6797 17.2667 29.6 18.187 29.6 19.3222V19.7333H32.0667V19.3222C32.0667 16.8247 30.042 14.8 27.5445 14.8H24.6667ZM7.4 14.8H19.7333V17.2667H14.8V32.0667H12.3333V17.2667H7.4V14.8Z" fill="#1930D0"/>
</svg>
