<svg width="37" height="37" viewBox="0 0 37 37" fill="none" xmlns="http://www.w3.org/2000/svg">
<path d="M0.352026 12.9025C0.352026 12.9025 -0.549161 12.2459 0.532263 11.3691L3.05183 9.09184C3.05183 9.09184 3.77279 8.32514 4.53503 8.99315L27.7856 26.7866V35.3188C27.7856 35.3188 27.7744 36.6586 26.0733 36.5106L0.352026 12.9025Z" fill="#0655B2"/>
<path d="M6.34471 18.4023L0.351819 23.9095C0.351819 23.9095 -0.263993 24.3726 0.351819 25.2L3.13423 27.7581C3.13423 27.7581 3.7951 28.4754 4.77139 27.6594L11.1247 22.7899L6.34471 18.4023Z" fill="#0655B2"/>
<path d="M16.8659 18.4477L27.8566 9.96471L27.7852 1.47787C27.7852 1.47787 27.3157 -0.374352 25.75 0.589716L11.1245 14.0449L16.8659 18.4477Z" fill="#0655B2"/>
<path d="M26.0728 36.5221C26.7111 37.1824 27.4847 36.9661 27.4847 36.9661L36.05 32.7C37.1466 31.9446 36.9926 31.0071 36.9926 31.0071V5.53155C36.9926 4.41187 35.8586 4.02472 35.8586 4.02472L28.4347 0.407581C26.8125 -0.605826 25.75 0.589762 25.75 0.589762C25.75 0.589762 27.1167 -0.404663 27.7852 1.47792V35.1633C27.7852 35.3948 27.7363 35.6225 27.6387 35.8274C27.4434 36.226 27.0191 36.598 26.0014 36.4424L26.0728 36.5221Z" fill="#0655B2"/>
</svg>
